<?xml version="1.0" encoding="utf-8"?>
<!-- Generator: Adobe Illustrator 16.0.2, SVG Export Plug-In . SVG Version: 6.00 Build 0)  -->
<!DOCTYPE svg PUBLIC "-//W3C//DTD SVG 1.1//EN" "http://www.w3.org/Graphics/SVG/1.1/DTD/svg11.dtd">
<svg version="1.1" id="Layer_1" xmlns="http://www.w3.org/2000/svg" xmlns:xlink="http://www.w3.org/1999/xlink" x="0px" y="0px"
	 width="350px" height="80px" viewBox="0 0 350 80" enable-background="new 0 0 350 80" xml:space="preserve">
<g opacity="0.2">
	<path fill="#3979B6" d="M32.061,31.811c40.005,15.058,306.947,26.896,306.947,26.896"/>
	<g>
		<path fill="none" stroke="#A0A0A0" stroke-width="6" stroke-miterlimit="10" d="M62.496,38.164
			c58.952,8.587,176.729,15.474,237.794,18.646"/>
		<g>
			<g>
				<path fill="#DCDBD9" d="M60.403,36.133c-9.299-8.683-16.608-19.416-21.788-30.932l49.636,7.56
					c4.952,12.276,13.985,22.703,23.978,31.266L60.403,36.133z"/>
				<path fill="#DCDBD9" d="M112.229,44.027c-12.177,5.079-23.526,12.739-32.2,22.715l-49.521-7.543
					c8.615-9.635,18.447-17.644,29.894-23.066L112.229,44.027z"/>
				<path fill="#A0A0A0" d="M91.136,13.201c4.958,12.277,13.985,22.703,23.978,31.266c-12.177,5.079-23.521,12.74-32.2,22.715
					l-6.662-1.015c8.627-9.633,18.453-17.644,29.906-23.064C96.854,34.419,89.54,23.685,84.371,12.17L91.136,13.201z"/>
				<path fill="#C4C3C1" d="M75.08,10.755c4.946,12.275,13.985,22.703,23.966,31.264c-12.177,5.08-23.509,12.742-32.188,22.718
					l-6.662-1.015c8.616-9.635,18.447-17.645,29.895-23.067C80.792,31.972,73.482,21.24,68.308,9.724L75.08,10.755z"/>
				<path fill="#CECDCA" d="M59.011,8.308c4.952,12.276,13.985,22.703,23.966,31.264C70.8,44.651,59.468,52.313,50.789,62.288
					l-6.662-1.015c8.615-9.635,18.447-17.644,29.894-23.066c-9.298-8.683-16.607-19.416-21.788-30.932L59.011,8.308z"/>
				<path fill="#E6E5E3" d="M42.948,5.861c4.947,12.275,13.979,22.702,23.966,31.264c-12.183,5.079-23.515,12.741-32.188,22.717
					l-6.667-1.016c8.616-9.635,18.447-17.644,29.9-23.065c-9.304-8.684-16.607-19.416-21.788-30.933L42.948,5.861z"/>
			</g>
		</g>
		<g>
			<polygon fill="#A0A0A0" points="269.349,75.13 293.996,56.406 271.386,35.268 339.008,58.706 			"/>
			<polygon fill="#FFFFFF" points="279.366,69.851 331.453,58.32 297.612,56.591 			"/>
		</g>
	</g>
</g>
<rect x="65.977" y="12.702" fill="none" width="130.287" height="59.729"/>
<text transform="matrix(1 0 0 1 65.9766 36.5576)" fill="#5BA3CB" font-family="'MateSC-Regular'" font-size="48">Game</text>
<rect x="121.983" y="35.222" fill="none" width="139.085" height="60.067"/>
<text transform="matrix(1 0 0 1 121.9829 70.7529)" fill="#60B955" font-family="'MicrosoftTaiLe'" font-size="48">LIFE</text>
</svg>
